<svg width="1023" height="843" viewBox="0 0 1023 843" fill="none" xmlns="http://www.w3.org/2000/svg">
<circle cx="452" cy="576" r="571" fill="#F16722"/>
<circle cx="452" cy="571" r="553.5" stroke="#F1F1F1" stroke-width="35"/>
<path d="M132.016 305.571C132.738 305.153 133.603 304.613 134.61 303.953C135.568 303.236 136.445 302.538 137.241 301.861C139.175 300.216 140.696 298.432 141.805 296.508C142.97 294.536 143.613 292.47 143.735 290.308C143.913 288.097 143.517 285.788 142.546 283.379C141.583 280.865 139.965 278.271 137.691 275.598C133.336 270.48 128.876 267.657 124.31 267.13C119.696 266.546 115.399 267.947 111.418 271.334C110.622 272.012 109.821 272.742 109.017 273.524C108.269 274.258 107.517 275.045 106.76 275.885L132.016 305.571ZM147.389 313.961C146.422 314.784 145.289 315.699 143.99 316.707C142.69 317.714 141.285 318.713 139.775 319.704C138.322 320.646 136.792 321.555 135.185 322.432C133.684 323.318 132.171 324.017 130.646 324.529C126.502 325.996 123.172 325.251 120.657 322.294L86.7645 282.456C85.7485 281.262 85.2871 280.086 85.3805 278.928C85.4824 277.665 85.9326 276.35 86.7314 274.985C88.4994 272.108 90.6516 269.395 93.1878 266.845C95.6757 264.238 98.0002 262.016 100.161 260.177C104.597 256.403 109.066 253.532 113.568 251.565C118.127 249.549 122.654 248.59 127.148 248.687C131.651 248.68 136.065 249.777 140.39 251.98C144.715 254.183 148.861 257.616 152.828 262.279C156.699 266.829 159.403 271.39 160.941 275.963C162.431 280.48 162.888 284.993 162.312 289.502C161.745 293.905 160.183 298.176 157.624 302.313C155.066 306.45 151.654 310.333 147.389 313.961Z" fill="#EFCC9A"/>
<path d="M312.884 678.042C313.621 678.434 314.536 678.882 315.629 679.386C316.745 679.82 317.801 680.195 318.797 680.512C321.216 681.283 323.535 681.629 325.754 681.552C328.043 681.497 330.138 680.949 332.036 679.908C334.006 678.89 335.756 677.331 337.286 675.233C338.91 673.085 340.254 670.34 341.319 666.996C343.358 660.592 343.392 655.314 341.424 651.161C339.477 646.937 336.014 644.032 331.034 642.447C330.038 642.13 328.995 641.837 327.905 641.568C326.886 641.322 325.82 641.1 324.708 640.903L312.884 678.042ZM313.9 695.526C312.69 695.141 311.314 694.664 309.771 694.094C308.229 693.525 306.638 692.862 304.998 692.105C303.43 691.37 301.848 690.553 300.254 689.654C298.708 688.848 297.314 687.934 296.073 686.912C292.635 684.172 291.505 680.952 292.683 677.253L308.551 627.414C309.026 625.92 309.78 624.906 310.812 624.372C311.937 623.79 313.291 623.477 314.872 623.432C318.249 623.41 321.69 623.8 325.196 624.603C328.724 625.334 331.84 626.13 334.544 626.991C340.093 628.758 344.894 631.031 348.946 633.81C353.069 636.611 356.278 639.944 358.574 643.81C360.963 647.626 362.368 651.952 362.788 656.788C363.207 661.623 362.488 666.957 360.631 672.791C358.819 678.483 356.379 683.192 353.313 686.917C350.269 690.571 346.682 693.347 342.551 695.245C338.515 697.094 334.064 698.028 329.2 698.047C324.336 698.065 319.236 697.225 313.9 695.526Z" fill="#EFCC9A"/>
<path d="M363.016 558.571C363.738 558.153 364.603 557.613 365.61 556.953C366.568 556.236 367.445 555.538 368.241 554.861C370.175 553.216 371.696 551.432 372.805 549.508C373.97 547.536 374.613 545.47 374.735 543.308C374.913 541.097 374.517 538.788 373.546 536.379C372.583 533.865 370.965 531.271 368.691 528.598C364.336 523.48 359.876 520.657 355.31 520.13C350.696 519.546 346.399 520.947 342.418 524.334C341.622 525.012 340.821 525.742 340.017 526.524C339.269 527.258 338.517 528.045 337.76 528.885L363.016 558.571ZM378.389 566.962C377.422 567.784 376.289 568.699 374.99 569.707C373.69 570.714 372.285 571.713 370.775 572.704C369.322 573.646 367.792 574.555 366.185 575.432C364.684 576.318 363.171 577.017 361.646 577.529C357.502 578.996 354.172 578.251 351.657 575.294L317.765 535.456C316.748 534.262 316.287 533.086 316.381 531.928C316.482 530.665 316.933 529.35 317.731 527.985C319.499 525.108 321.652 522.395 324.188 519.845C326.676 517.238 329 515.016 331.161 513.177C335.597 509.403 340.066 506.532 344.568 504.565C349.127 502.549 353.654 501.59 358.148 501.687C362.651 501.68 367.065 502.777 371.39 504.98C375.715 507.183 379.861 510.616 383.828 515.279C387.699 519.829 390.403 524.39 391.941 528.963C393.431 533.48 393.888 537.993 393.312 542.502C392.745 546.905 391.183 551.176 388.624 555.313C386.066 559.45 382.654 563.333 378.389 566.962Z" fill="#EFCC9A"/>
<path d="M420.246 719.247C419.765 719.95 418.915 720.967 417.696 722.299C416.533 723.582 415.297 724.78 413.989 725.893C412.681 727.006 411.419 727.884 410.201 728.528C409.089 729.179 407.975 729.54 406.857 729.608C405.739 729.677 404.622 729.402 403.507 728.782C402.391 728.163 401.205 727.113 399.947 725.635L361.628 680.594C362.157 679.948 363.031 678.959 364.251 677.627C365.422 676.238 366.633 675.012 367.884 673.947C369.192 672.834 370.427 671.981 371.587 671.386C372.756 670.685 373.899 670.301 375.017 670.232C376.135 670.163 377.251 670.439 378.367 671.058C379.482 671.678 380.669 672.727 381.927 674.206L420.246 719.247Z" fill="#EFCC9A"/>
<path d="M216.28 677.608C215.45 677.797 214.135 677.967 212.335 678.117C210.61 678.269 208.89 678.31 207.174 678.239C205.458 678.168 203.935 677.955 202.604 677.601C201.345 677.325 200.282 676.832 199.415 676.124C198.547 675.415 197.915 674.455 197.517 673.243C197.118 672.03 196.96 670.454 197.04 668.515L199.49 609.43C200.317 609.314 201.63 609.182 203.43 609.032C205.233 608.808 206.955 608.73 208.596 608.798C210.312 608.869 211.798 609.08 213.054 609.431C214.387 609.711 215.488 610.205 216.355 610.914C217.223 611.622 217.855 612.582 218.253 613.795C218.651 615.007 218.81 616.583 218.73 618.522L216.28 677.608Z" fill="#EFCC9A"/>
<path d="M81.3689 407.135C80.8767 407.829 80.0097 408.832 78.7678 410.143C77.5836 411.407 76.3282 412.584 75.0018 413.675C73.6753 414.766 72.3981 415.623 71.1703 416.245C70.0476 416.879 68.9268 417.22 67.8079 417.27C66.689 417.32 65.5772 417.026 64.4724 416.388C63.3676 415.75 62.1987 414.681 60.9657 413.181L23.4072 367.504C23.9468 366.867 24.8375 365.893 26.0794 364.582C27.2739 363.213 28.5055 362.007 29.7743 360.963C31.1008 359.873 32.3492 359.04 33.5193 358.464C34.6997 357.784 35.8493 357.418 36.9682 357.368C38.0871 357.318 39.1989 357.612 40.3037 358.251C41.4085 358.889 42.5774 359.958 43.8104 361.457L81.3689 407.135Z" fill="#EFCC9A"/>
<path d="M598.746 87.0318C599.347 87.6347 600.188 88.6593 601.27 90.1057C602.314 91.4873 603.261 92.9242 604.111 94.4166C604.961 95.9089 605.588 97.313 605.994 98.6287C606.427 99.8426 606.574 101.005 606.433 102.116C606.293 103.227 605.814 104.273 604.997 105.254C604.181 106.234 602.929 107.205 601.242 108.165L549.853 137.427C549.317 136.787 548.508 135.744 547.427 134.297C546.281 132.888 545.301 131.469 544.488 130.042C543.638 128.549 543.029 127.178 542.661 125.927C542.19 124.648 542.026 123.453 542.166 122.342C542.307 121.231 542.785 120.185 543.602 119.205C544.418 118.224 545.67 117.254 547.357 116.293L598.746 87.0318Z" fill="#EFCC9A"/>
<path d="M91.4323 547.838C91.0094 547.628 90.5598 547.339 90.0837 546.97C89.6602 546.549 89.2631 546.154 88.8925 545.786C87.9396 544.838 87.145 543.837 86.5086 542.783C85.8722 541.728 85.4733 540.647 85.3119 539.539C85.1505 538.43 85.2531 537.321 85.6197 536.212C85.986 534.996 86.7484 533.806 87.9068 532.642C89.0126 531.53 90.3302 530.682 91.8598 530.097C93.442 529.459 95.4729 528.794 97.9525 528.101L124.78 520.821C127.949 521.235 131.016 522.917 133.981 525.865C136.204 528.077 137.609 530.106 138.195 531.952C138.78 533.798 138.812 535.673 138.289 537.575L129.274 572.049C126.006 573.959 123.315 574.811 121.203 574.605C119.09 574.294 117.346 573.454 115.969 572.085C114.116 570.242 113.135 568.371 113.024 566.47C112.913 564.464 113.303 562.114 114.193 559.419L121.026 538.413L91.4323 547.838Z" fill="#EFCC9A"/>
<path d="M384.055 358.817C383.617 358.993 383.102 359.137 382.51 359.247C381.914 359.284 381.355 359.317 380.833 359.349C379.492 359.43 378.216 359.358 377.005 359.132C375.795 358.906 374.722 358.484 373.787 357.868C372.852 357.251 372.092 356.437 371.507 355.425C370.843 354.343 370.462 352.982 370.363 351.343C370.268 349.778 370.511 348.229 371.091 346.698C371.667 345.092 372.521 343.133 373.653 340.821L386.061 315.946C388.478 313.855 391.773 312.683 395.947 312.43C399.077 312.241 401.527 312.542 403.295 313.332C405.063 314.123 406.484 315.346 407.556 317.002L427.304 346.663C426.556 350.374 425.403 352.949 423.844 354.39C422.207 355.761 420.419 356.505 418.481 356.622C415.873 356.78 413.822 356.268 412.329 355.087C410.758 353.836 409.261 351.981 407.841 349.524L396.701 330.45L384.055 358.817Z" fill="#EFCC9A"/>
<path d="M137.924 165.245C137.644 164.865 137.376 164.403 137.12 163.858C136.936 163.29 136.763 162.757 136.602 162.26C136.187 160.982 135.937 159.728 135.852 158.5C135.767 157.271 135.906 156.127 136.268 155.067C136.631 154.008 137.229 153.068 138.061 152.248C138.942 151.334 140.164 150.623 141.726 150.116C143.218 149.632 144.777 149.479 146.405 149.657C148.104 149.812 150.215 150.147 152.737 150.663L179.929 156.436C182.559 158.251 184.52 161.147 185.811 165.124C186.78 168.107 187.103 170.553 186.781 172.464C186.459 174.374 185.631 176.055 184.297 177.509L160.536 204.064C156.757 204.271 153.974 203.8 152.189 202.653C150.451 201.411 149.282 199.867 148.683 198.021C147.876 195.535 147.857 193.422 148.626 191.681C149.444 189.845 150.863 187.932 152.886 185.941L168.557 170.373L137.924 165.245Z" fill="#EFCC9A"/>
<path d="M268.286 206.412C268.526 206.005 268.846 205.577 269.247 205.128C269.697 204.735 270.12 204.367 270.513 204.024C271.526 203.141 272.581 202.419 273.678 201.859C274.775 201.299 275.882 200.978 276.999 200.895C278.116 200.813 279.214 200.994 280.295 201.438C281.482 201.89 282.615 202.735 283.694 203.973C284.725 205.155 285.477 206.529 285.952 208.096C286.476 209.72 286.996 211.793 287.511 214.315L292.869 241.592C292.232 244.724 290.337 247.663 287.186 250.411C284.822 252.472 282.699 253.73 280.815 254.183C278.932 254.636 277.06 254.535 275.2 253.878L241.452 242.441C239.779 239.045 239.12 236.301 239.475 234.209C239.935 232.123 240.896 230.443 242.36 229.167C244.329 227.449 246.266 226.603 248.169 226.627C250.178 226.659 252.495 227.214 255.12 228.293L275.588 236.6L268.286 206.412Z" fill="#EFCC9A"/>
<path d="M129.286 331.412C129.526 331.005 129.846 330.577 130.247 330.128C130.697 329.735 131.12 329.367 131.513 329.024C132.526 328.141 133.581 327.419 134.678 326.859C135.775 326.299 136.882 325.978 137.999 325.895C139.116 325.813 140.214 325.994 141.295 326.438C142.482 326.89 143.615 327.735 144.694 328.973C145.725 330.155 146.477 331.529 146.952 333.096C147.476 334.72 147.996 336.793 148.511 339.315L153.869 366.592C153.232 369.724 151.337 372.663 148.186 375.411C145.822 377.472 143.699 378.73 141.815 379.183C139.932 379.636 138.06 379.535 136.2 378.878L102.452 367.441C100.779 364.045 100.12 361.301 100.475 359.209C100.935 357.123 101.896 355.443 103.36 354.167C105.329 352.449 107.266 351.603 109.169 351.627C111.178 351.659 113.495 352.214 116.12 353.293L136.588 361.6L129.286 331.412Z" fill="#EFCC9A"/>
<path d="M412.751 115.369C412.279 115.384 411.746 115.342 411.152 115.243C410.58 115.072 410.043 114.912 409.542 114.763C408.254 114.379 407.08 113.874 406.021 113.247C404.961 112.619 404.098 111.856 403.431 110.956C402.764 110.056 402.329 109.031 402.127 107.88C401.874 106.636 401.982 105.226 402.451 103.652C402.899 102.149 403.658 100.778 404.728 99.5391C405.82 98.2283 407.294 96.6807 409.15 94.8963L429.335 75.7839C432.322 74.6482 435.82 74.6773 439.827 75.8711C442.833 76.7665 445.03 77.8887 446.42 79.2377C447.81 80.5867 448.725 82.2227 449.165 84.1457L457.545 118.78C455.571 122.009 453.604 124.033 451.646 124.853C449.638 125.579 447.703 125.665 445.843 125.11C443.338 124.364 441.588 123.18 440.59 121.559C439.543 119.844 438.773 117.589 438.282 114.794L434.357 93.0566L412.751 115.369Z" fill="#EFCC9A"/>
<path d="M523.05 245.348C522.99 246.181 522.949 247.199 522.929 248.403C522.983 249.598 523.066 250.716 523.178 251.755C523.451 254.279 524.07 256.54 525.037 258.539C526.012 260.612 527.359 262.306 529.078 263.623C530.805 265.013 532.938 265.985 535.476 266.537C538.096 267.155 541.15 267.276 544.639 266.9C551.321 266.179 556.163 264.079 559.167 260.6C562.246 257.114 563.504 252.772 562.944 247.576C562.831 246.537 562.678 245.464 562.484 244.359C562.297 243.327 562.07 242.263 561.801 241.166L523.05 245.348ZM507.466 253.338C507.329 252.076 507.21 250.625 507.108 248.984C507.006 247.342 506.97 245.619 507.001 243.813C507.039 242.082 507.148 240.305 507.327 238.484C507.439 236.744 507.713 235.1 508.146 233.551C509.264 229.3 511.754 226.966 515.614 226.549L567.616 220.937C569.175 220.769 570.407 221.049 571.311 221.777C572.298 222.572 573.132 223.683 573.812 225.112C575.196 228.192 576.228 231.498 576.91 235.029C577.666 238.552 578.196 241.724 578.5 244.545C579.125 250.335 578.985 255.645 578.079 260.474C577.181 265.378 575.428 269.66 572.819 273.321C570.293 277.048 566.902 280.08 562.649 282.417C558.395 284.753 553.224 286.25 547.137 286.907C541.198 287.548 535.905 287.218 531.259 285.917C526.687 284.608 522.699 282.448 519.294 279.436C515.972 276.49 513.321 272.796 511.339 268.353C509.358 263.911 508.066 258.906 507.466 253.338Z" fill="#EFCC9A"/>
<path d="M-15.9499 523.348C-16.0102 524.181 -16.0505 525.199 -16.0708 526.403C-16.0168 527.598 -15.9338 528.716 -15.8216 529.755C-15.5492 532.279 -14.9296 534.54 -13.9629 536.539C-12.9882 538.612 -11.6413 540.306 -9.92208 541.623C-8.19487 543.013 -6.06232 543.985 -3.52441 544.537C-0.904256 545.155 2.15036 545.276 5.63943 544.9C12.3206 544.179 17.1633 542.079 20.1674 538.6C23.2457 535.114 24.5044 530.772 23.9435 525.576C23.8314 524.537 23.6781 523.464 23.4837 522.359C23.2972 521.327 23.0697 520.263 22.8011 519.166L-15.9499 523.348ZM-31.5344 531.338C-31.6706 530.076 -31.7898 528.625 -31.8918 526.984C-31.9938 525.342 -32.0296 523.619 -31.9992 521.813C-31.9608 520.082 -31.8522 518.305 -31.6733 516.484C-31.5606 514.744 -31.2875 513.1 -30.8538 511.551C-29.7356 507.3 -27.2463 504.966 -23.386 504.549L28.6159 498.937C30.1749 498.768 31.4067 499.049 32.3115 499.777C33.2984 500.572 34.1319 501.683 34.8118 503.112C36.1956 506.192 37.2283 509.498 37.9098 513.029C38.6656 516.552 39.1957 519.724 39.5001 522.545C40.1251 528.335 39.9847 533.645 39.079 538.474C38.1813 543.378 36.428 547.66 33.8192 551.321C31.2926 555.048 27.9023 558.08 23.6485 560.417C19.3947 562.753 14.2241 564.25 8.1368 564.907C2.19796 565.548 -3.09468 565.218 -7.7411 563.917C-12.3133 562.608 -16.3015 560.448 -19.7057 557.436C-23.0277 554.49 -25.6794 550.796 -27.6609 546.353C-29.6423 541.911 -30.9335 536.906 -31.5344 531.338Z" fill="#EFCC9A"/>
<path d="M340.05 832.348C339.99 833.181 339.949 834.199 339.929 835.403C339.983 836.598 340.066 837.716 340.178 838.755C340.451 841.279 341.07 843.54 342.037 845.539C343.012 847.612 344.359 849.306 346.078 850.623C347.805 852.013 349.938 852.985 352.476 853.537C355.096 854.155 358.15 854.276 361.639 853.9C368.321 853.179 373.163 851.079 376.167 847.6C379.246 844.114 380.504 839.772 379.944 834.576C379.831 833.537 379.678 832.464 379.484 831.359C379.297 830.327 379.07 829.263 378.801 828.166L340.05 832.348ZM324.466 840.338C324.329 839.076 324.21 837.625 324.108 835.984C324.006 834.342 323.97 832.619 324.001 830.813C324.039 829.082 324.148 827.305 324.327 825.484C324.439 823.744 324.713 822.1 325.146 820.551C326.264 816.3 328.754 813.966 332.614 813.549L384.616 807.937C386.175 807.768 387.407 808.049 388.311 808.777C389.298 809.572 390.132 810.683 390.812 812.112C392.196 815.192 393.228 818.498 393.91 822.029C394.666 825.552 395.196 828.724 395.5 831.545C396.125 837.335 395.985 842.645 395.079 847.474C394.181 852.378 392.428 856.66 389.819 860.321C387.293 864.048 383.902 867.08 379.649 869.417C375.395 871.753 370.224 873.25 364.137 873.907C358.198 874.548 352.905 874.218 348.259 872.917C343.687 871.608 339.699 869.448 336.294 866.436C332.972 863.49 330.321 859.796 328.339 855.353C326.358 850.911 325.066 845.906 324.466 840.338Z" fill="#EFCC9A"/>
<path d="M861.492 800.038C862.537 800.934 863.562 802.439 864.567 804.55C865.56 806.588 866.256 808.898 866.654 811.481C867.131 814.581 867.097 817.306 866.553 819.656C865.934 822.018 864.876 823.729 863.377 824.791C861.805 825.864 859.781 827.196 857.306 828.785C854.758 830.387 851.925 832.107 848.809 833.947C845.681 835.713 842.38 837.581 838.906 839.551C835.347 841.459 831.746 843.336 828.101 845.181C824.457 847.027 820.875 848.787 817.356 850.462C813.837 852.137 810.516 853.631 807.394 854.942C806.202 854.068 805.052 852.734 803.945 850.941C802.752 849.084 801.986 847.049 801.645 844.835C801.224 842.105 801.474 839.8 802.393 837.921C803.227 835.979 805.132 834.364 808.106 833.075C815.031 829.969 821.662 826.908 827.996 823.893C834.246 820.815 840.78 817.619 847.597 814.302L847.495 813.638C840.251 812.714 832.374 811.849 823.865 811.044C815.344 810.165 806.877 809.392 798.464 808.723C797.595 807.497 796.826 806.18 796.156 804.772C795.474 803.291 794.986 801.59 794.69 799.672C794.27 796.941 794.539 794.52 795.498 792.408C796.384 790.308 798.228 789.041 801.033 788.61C802.656 788.36 805.08 788.402 808.305 788.736C811.518 788.997 815.176 789.454 819.281 790.106C823.3 790.696 827.532 791.442 831.977 792.344C836.411 793.172 840.629 794.071 844.631 795.041C848.548 795.949 852.048 796.846 855.131 797.731C858.14 798.627 860.26 799.396 861.492 800.038Z" fill="#EFCC9A"/>
<path d="M591.089 765.829C590.046 766.727 588.405 767.515 586.167 768.192C584.003 768.869 581.614 769.211 579.001 769.217C575.865 769.224 573.176 768.783 570.934 767.892C568.692 766.926 567.158 765.623 566.333 763.982C565.508 762.267 564.494 760.067 563.293 757.382C562.092 754.622 560.816 751.563 559.464 748.206C558.187 744.849 556.835 741.306 555.407 737.576C554.054 733.771 552.739 729.929 551.46 726.049C550.182 722.169 548.978 718.364 547.85 714.633C546.721 710.903 545.742 707.396 544.913 704.112C545.956 703.065 547.447 702.128 549.387 701.302C551.401 700.401 553.527 699.948 555.767 699.943C558.53 699.936 560.772 700.529 562.492 701.719C564.286 702.835 565.598 704.96 566.427 708.094C568.46 715.407 570.492 722.421 572.524 729.136C574.63 735.776 576.811 742.715 579.068 749.953L579.74 749.951C581.74 742.928 583.775 735.27 585.847 726.977C587.993 718.684 590.027 710.428 591.949 702.211C593.291 701.535 594.709 700.972 596.201 700.521C597.768 700.069 599.522 699.841 601.463 699.836C604.226 699.83 606.579 700.459 608.524 701.724C610.468 702.914 611.443 704.928 611.45 707.765C611.454 709.408 611.049 711.798 610.235 714.936C609.495 718.074 608.496 721.623 607.235 725.583C606.05 729.468 604.678 733.541 603.12 737.801C601.637 742.06 600.115 746.096 598.556 749.907C597.072 753.644 595.661 756.97 594.323 759.885C592.986 762.726 591.908 764.707 591.089 765.829Z" fill="#EFCC9A"/>
<path d="M687.935 238.125C687.227 238.598 686.059 239.226 684.431 240.007C682.874 240.764 681.281 241.416 679.652 241.961C678.024 242.506 676.525 242.851 675.156 242.994C673.881 243.185 672.712 243.104 671.649 242.751C670.586 242.398 669.653 241.726 668.848 240.736C668.044 239.745 667.334 238.329 666.718 236.488L647.944 180.411C648.675 180.009 649.855 179.417 651.483 178.636C653.088 177.784 654.669 177.097 656.227 176.576C657.855 176.03 659.319 175.698 660.617 175.578C661.963 175.364 663.167 175.433 664.23 175.786C665.293 176.139 666.227 176.81 667.031 177.801C667.835 178.792 668.545 180.207 669.161 182.048L687.935 238.125Z" fill="#EFCC9A"/>
<path d="M81.4428 815.91C80.5708 816.505 79.6994 817.017 78.8286 817.446C77.9907 817.942 77.2033 818.371 76.4664 818.734C73.6528 820.119 71.1788 820.587 69.0445 820.14C66.9771 819.66 65.2839 818.08 63.9649 815.4C63.0746 813.591 62.4522 811.651 62.0978 809.578C61.7104 807.438 61.3714 805.566 61.0809 803.962L47.3573 731.448C48.2962 730.819 49.2011 730.29 50.072 729.862C50.9099 729.366 51.6973 728.937 52.4342 728.574C55.1138 727.255 57.5043 726.786 59.6057 727.166C61.774 727.514 63.4848 728.96 64.7378 731.506C65.6941 733.449 66.333 735.423 66.6544 737.428C66.9758 739.434 67.3308 741.423 67.7192 743.396L81.4428 815.91Z" fill="#EFCC9A"/>
<path d="M305.443 523.91C304.571 524.505 303.699 525.017 302.829 525.446C301.991 525.942 301.203 526.371 300.466 526.734C297.653 528.119 295.179 528.587 293.044 528.14C290.977 527.66 289.284 526.08 287.965 523.4C287.075 521.591 286.452 519.651 286.098 517.578C285.71 515.439 285.371 513.566 285.081 511.962L271.357 439.448C272.296 438.819 273.201 438.291 274.072 437.862C274.91 437.366 275.697 436.937 276.434 436.574C279.114 435.255 281.504 434.786 283.606 435.166C285.774 435.514 287.485 436.96 288.738 439.506C289.694 441.449 290.333 443.423 290.654 445.428C290.976 447.434 291.331 449.423 291.719 451.396L305.443 523.91Z" fill="#EFCC9A"/>
<path d="M440.177 176.079C441.233 176.099 442.24 176.186 443.198 176.341C444.169 176.422 445.059 176.528 445.87 176.659C448.966 177.16 451.254 178.211 452.735 179.811C454.142 181.4 454.607 183.669 454.13 186.617C453.809 188.608 453.192 190.55 452.281 192.445C451.357 194.413 450.549 196.136 449.857 197.612L419.047 264.675C417.917 264.643 416.874 264.55 415.915 264.395C414.945 264.314 414.055 264.208 413.244 264.077C410.296 263.6 408.075 262.598 406.582 261.071C405.016 259.532 404.459 257.362 404.912 254.561C405.257 252.424 405.88 250.444 406.78 248.623C407.679 246.802 408.542 244.975 409.367 243.142L440.177 176.079Z" fill="#EFCC9A"/>
<path d="M270.656 350.76C271.712 350.78 272.719 350.867 273.677 351.022C274.648 351.103 275.538 351.209 276.349 351.34C279.445 351.841 281.733 352.891 283.214 354.492C284.621 356.081 285.086 358.35 284.609 361.298C284.288 363.288 283.671 365.231 282.76 367.126C281.836 369.094 281.028 370.817 280.336 372.293L249.526 439.356C248.396 439.324 247.353 439.231 246.394 439.076C245.424 438.995 244.534 438.889 243.723 438.758C240.775 438.281 238.554 437.279 237.061 435.752C235.495 434.213 234.938 432.043 235.391 429.242C235.736 427.104 236.359 425.125 237.259 423.304C238.158 421.483 239.021 419.656 239.846 417.823L270.656 350.76Z" fill="#EFCC9A"/>
<path d="M276.272 79.5511C276.563 78.536 276.907 77.5854 277.303 76.6994C277.631 75.7829 277.963 74.9498 278.299 74.2001C279.58 71.3376 281.184 69.3971 283.113 68.3786C285.01 67.4281 287.322 67.5629 290.048 68.7828C291.889 69.6063 293.607 70.7024 295.203 72.071C296.867 73.4702 298.324 74.6945 299.572 75.7439L356.437 122.786C356.116 123.87 355.757 124.854 355.36 125.74C355.032 126.657 354.7 127.49 354.365 128.239C353.145 130.966 351.605 132.853 349.745 133.902C347.854 135.02 345.614 134.999 343.024 133.84C341.048 132.955 339.295 131.844 337.767 130.506C336.239 129.168 334.696 127.863 333.138 126.593L276.272 79.5511Z" fill="#EFCC9A"/>
<path d="M98.8967 752.015C98.5727 751.671 98.2512 751.244 97.9321 750.734C97.6808 750.192 97.4452 749.684 97.2253 749.21C96.6598 747.99 96.2612 746.776 96.0295 745.567C95.7978 744.357 95.7983 743.205 96.0309 742.109C96.2635 741.014 96.7441 740.009 97.4724 739.095C98.2372 738.082 99.3646 737.23 100.855 736.538C102.277 735.879 103.807 735.54 105.445 735.521C107.15 735.471 109.286 735.55 111.852 735.759L139.54 738.227C142.369 739.713 144.663 742.353 146.423 746.146C147.742 748.991 148.357 751.381 148.266 753.316C148.176 755.25 147.556 757.019 146.407 758.623L126.005 787.838C122.278 788.497 119.459 788.364 117.549 787.439C115.674 786.415 114.329 785.023 113.512 783.262C112.413 780.891 112.14 778.795 112.695 776.974C113.286 775.054 114.466 772.984 116.235 770.764L129.923 753.428L98.8967 752.015Z" fill="#EFCC9A"/>
<path d="M537.791 799.709C538.741 800.169 539.619 800.67 540.424 801.212C541.271 801.692 542.035 802.162 542.716 802.621C545.318 804.372 546.955 806.285 547.629 808.359C548.241 810.391 547.713 812.646 546.044 815.124C544.918 816.796 543.545 818.301 541.923 819.64C540.26 821.04 538.804 822.266 537.557 823.316L481.483 871.298C480.47 870.796 479.561 870.274 478.756 869.732C477.909 869.252 477.145 868.783 476.464 868.324C473.987 866.656 472.39 864.815 471.675 862.803C470.897 860.75 471.301 858.546 472.886 856.192C474.095 854.396 475.49 852.86 477.07 851.583C478.649 850.307 480.198 849.009 481.716 847.691L537.791 799.709Z" fill="#EFCC9A"/>
<path d="M236.685 797.985C237.73 797.829 238.737 797.748 239.708 797.742C240.678 797.661 241.574 797.618 242.395 797.613C245.531 797.594 247.962 798.25 249.688 799.584C251.339 800.917 252.174 803.077 252.192 806.064C252.205 808.08 251.919 810.098 251.334 812.118C250.75 814.212 250.239 816.044 249.8 817.615L230.533 888.857C229.414 889.013 228.369 889.095 227.399 889.101C226.428 889.181 225.533 889.224 224.711 889.229C221.725 889.248 219.369 888.628 217.644 887.37C215.844 886.111 214.935 884.064 214.917 881.226C214.904 879.061 215.189 877.006 215.775 875.061C216.36 873.116 216.908 871.171 217.418 869.227L236.685 797.985Z" fill="#EFCC9A"/>
<path d="M625.272 805.551C625.563 804.536 625.907 803.585 626.303 802.699C626.631 801.783 626.963 800.95 627.299 800.2C628.58 797.338 630.184 795.397 632.113 794.379C634.01 793.428 636.322 793.563 639.048 794.783C640.889 795.606 642.607 796.702 644.203 798.071C645.867 799.47 647.324 800.695 648.572 801.744L705.437 848.786C705.116 849.87 704.757 850.854 704.36 851.74C704.032 852.657 703.7 853.49 703.365 854.24C702.145 856.966 700.605 858.853 698.745 859.902C696.854 861.02 694.614 860.999 692.024 859.84C690.048 858.955 688.295 857.844 686.767 856.506C685.239 855.168 683.696 853.864 682.137 852.593L625.272 805.551Z" fill="#EFCC9A"/>
</svg>
