<svg width="1098" height="661" viewBox="0 0 1098 661" fill="none" xmlns="http://www.w3.org/2000/svg">
<path d="M510.793 9.32635C673.657 8.4661 858.539 152.311 859.482 330.953C860.426 509.595 677.074 655.385 514.21 656.245C351.346 657.106 3.47653 514.121 2.53295 335.48C1.58937 156.838 347.929 10.1866 510.793 9.32635Z" fill="#E5E5E5"/>
<path d="M698.962 275.285L1797.11 268.085C1859.51 314.814 1837.82 338.794 1797.82 377.278L699.678 384.478L698.962 275.285Z" fill="#E5E5E5"/>
<path d="M835.37 328.486C860.018 479.813 651.056 636.825 519.96 615.457C407.592 616.194 65.6466 456.727 64.8389 333.538C64.0312 210.349 391.799 50.9083 504.167 50.1715C616.535 49.4348 834.562 205.297 835.37 328.486Z" fill="#EF7234" fill-opacity="0.83"/>
<path d="M835.559 327.958C858.553 469.129 663.616 615.603 541.318 595.669C436.492 596.356 117.496 447.592 116.742 332.671C115.989 217.749 421.758 69.0095 526.585 68.3222C631.411 67.6349 834.806 213.036 835.559 327.958Z" fill="#F16722" fill-opacity="0.8"/>
<path d="M389.198 289.805C390.813 290.088 392.795 290.368 395.143 290.646C397.491 290.777 399.691 290.836 401.745 290.823C406.731 290.79 411.273 290.027 415.37 288.533C419.614 287.039 423.192 284.742 426.105 281.643C429.165 278.543 431.485 274.567 433.067 269.717C434.794 264.719 435.635 258.773 435.59 251.88C435.504 238.68 432.359 228.801 426.156 222.241C419.952 215.535 411.716 212.216 401.45 212.283C399.396 212.296 397.27 212.384 395.071 212.545C393.019 212.705 390.894 212.939 388.696 213.247L389.198 289.805ZM401.728 321.843C399.235 321.86 396.374 321.805 393.147 321.68C389.919 321.554 386.544 321.283 383.021 320.866C379.645 320.448 376.195 319.884 372.67 319.174C369.293 318.609 366.134 317.75 363.193 316.596C355.106 313.569 351.038 308.242 350.988 300.616L350.314 197.878C350.294 194.798 351.085 192.446 352.688 190.822C354.436 189.051 356.774 187.642 359.7 186.596C365.994 184.501 372.658 183.138 379.694 182.505C386.729 181.725 393.033 181.317 398.606 181.281C410.046 181.206 420.395 182.531 429.653 185.257C439.058 187.982 447.079 192.257 453.718 198.08C460.502 203.756 465.756 210.981 469.48 219.757C473.205 228.533 475.106 238.934 475.185 250.96C475.262 262.693 473.569 272.971 470.107 281.794C466.644 290.47 461.632 297.837 455.072 303.893C448.657 309.802 440.913 314.253 431.839 317.246C422.765 320.239 412.728 321.771 401.728 321.843Z" fill="#EFCC9A"/>
<path d="M319.829 423.984C313.362 421.827 307.481 419.665 302.186 417.5C296.891 415.188 292.326 412.431 288.492 409.229C284.657 406.028 281.626 402.234 279.397 397.849C277.314 393.316 276.251 387.822 276.209 381.369C276.127 368.903 280.828 358.898 290.312 351.356C299.943 343.813 313.412 339.984 330.718 339.871C337.024 339.83 342.894 340.231 348.326 341.076C353.759 341.92 358.388 343.283 362.213 345.165C366.185 346.899 369.28 349.225 371.499 352.144C373.718 354.916 374.839 358.209 374.864 362.022C374.889 365.835 374.031 369.141 372.289 371.939C370.546 374.591 368.435 376.878 365.954 378.801C362.714 376.769 358.376 375.037 352.94 373.606C347.502 372.028 341.557 371.261 335.104 371.303C328.504 371.346 323.671 372.331 320.603 374.258C317.535 376.038 316.01 378.322 316.028 381.108C316.042 383.308 317.008 385.135 318.924 386.589C320.839 387.897 323.707 389.125 327.528 390.273L339.213 393.936C353.028 398.246 363.625 403.823 371.003 410.668C378.527 417.366 382.328 426.581 382.404 438.314C382.486 450.781 377.639 460.933 367.864 468.77C358.087 476.461 343.666 480.369 324.6 480.494C317.853 480.538 311.543 479.993 305.669 478.858C299.942 477.869 294.872 476.362 290.459 474.338C286.191 472.166 282.8 469.548 280.287 466.484C277.919 463.273 276.722 459.614 276.695 455.508C276.667 451.254 277.89 447.653 280.364 444.703C282.837 441.607 285.535 439.243 288.458 437.61C292.586 440.81 297.59 443.564 303.472 445.872C309.501 448.179 316.035 449.31 323.075 449.263C330.261 449.216 335.314 448.083 338.233 445.864C341.152 443.645 342.602 441.069 342.582 438.135C342.563 435.202 341.375 433.01 339.019 431.559C336.662 429.961 333.352 428.442 329.089 427.004L319.829 423.984Z" fill="#EFCC9A"/>
<path d="M389.799 389.062C389.724 377.622 391.418 367.491 394.88 358.668C398.489 349.844 403.354 342.479 409.475 336.572C415.743 330.517 423.046 325.923 431.386 322.788C439.872 319.652 449.028 318.052 458.855 317.988C468.681 317.923 477.784 319.404 486.164 322.429C494.691 325.453 502.127 329.951 508.473 335.923C514.818 341.748 519.78 349.049 523.357 357.826C527.082 366.601 528.981 376.709 529.056 388.149C529.131 399.589 527.438 409.793 523.977 418.763C520.515 427.586 515.65 435.024 509.383 441.079C503.261 446.986 495.958 451.507 487.471 454.643C478.985 457.779 469.755 459.379 459.782 459.445C449.809 459.51 440.559 458.031 432.032 455.006C423.505 451.836 416.141 447.264 409.942 441.291C403.743 435.318 398.854 427.943 395.277 419.167C391.699 410.39 389.873 400.355 389.799 389.062ZM429.398 388.802C429.486 402.149 432.265 412.104 437.734 418.668C443.204 425.233 450.486 428.485 459.579 428.425C468.819 428.365 476.13 425.017 481.513 418.381C486.897 411.746 489.545 401.755 489.457 388.409C489.371 375.209 486.592 365.327 481.123 358.763C475.799 352.197 468.518 348.945 459.278 349.006C450.185 349.065 442.873 352.413 437.343 359.05C431.959 365.538 429.311 375.456 429.398 388.802Z" fill="#EFCC9A"/>
<path d="M648.215 425.571C648.267 433.491 646.921 440.76 644.177 447.378C641.58 453.849 637.73 459.447 632.627 464.174C627.524 468.754 621.314 472.315 613.997 474.857C606.68 477.398 598.402 478.699 589.162 478.76C579.922 478.82 571.628 477.628 564.278 475.183C556.929 472.737 550.672 469.258 545.509 464.745C540.345 460.086 536.349 454.539 533.52 448.104C530.837 441.521 529.469 434.27 529.417 426.35L528.866 342.312C530.478 342.008 533.042 341.625 536.559 341.161C540.075 340.552 543.446 340.236 546.673 340.215C550.046 340.193 552.981 340.467 555.478 341.037C558.121 341.46 560.327 342.326 562.096 343.634C563.864 344.943 565.196 346.767 566.092 349.108C566.987 351.449 567.447 354.526 567.472 358.339L567.912 425.438C567.958 432.478 569.901 437.965 573.74 441.9C577.726 445.834 582.799 447.781 588.959 447.74C595.265 447.699 600.312 445.686 604.099 441.701C607.887 437.716 609.757 432.204 609.711 425.164L609.164 341.785C610.776 341.482 613.34 341.098 616.857 340.635C620.373 340.025 623.744 339.71 626.971 339.689C630.344 339.667 633.28 339.941 635.777 340.511C638.419 340.934 640.625 341.799 642.394 343.108C644.162 344.416 645.494 346.241 646.39 348.582C647.285 350.922 647.745 353.999 647.77 357.813L648.215 425.571Z" fill="#EFCC9A"/>
<path d="M727.802 433.038C733.782 434.516 738.618 434.276 742.309 432.32C746.171 430.256 748.691 426.349 749.866 420.602C750.983 415.141 750.127 410.552 747.297 406.834C744.64 403.007 740.107 400.302 733.7 398.719C731.422 398.156 729.485 397.753 727.889 397.51C726.465 397.158 724.941 396.932 723.316 396.833L716.483 430.241L727.802 433.038ZM702.545 499.481C700.89 499.526 698.31 499.341 694.805 498.928C691.442 498.55 688.123 497.956 684.848 497.147C681.573 496.338 678.713 495.329 676.268 494.121C673.935 493.092 672.047 491.72 670.603 490.004C669.159 488.289 668.245 486.176 667.861 483.666C667.477 481.156 667.667 478.033 668.431 474.297L689.196 372.778C689.813 369.761 691.066 367.655 692.956 366.462C695.017 365.16 697.574 364.357 700.628 364.055C705.821 363.527 711.553 363.66 717.823 364.454C724.264 365.14 730.617 366.257 736.882 367.805C756.531 372.66 770.686 380.611 779.346 391.657C788.006 402.703 790.851 415.482 787.883 429.995C786.443 437.036 783.996 443.149 780.542 448.334C777.26 453.41 772.986 457.486 767.72 460.563C762.625 463.531 756.497 465.337 749.334 465.983C742.344 466.52 734.506 465.715 725.82 463.569L710.656 459.823L702.545 499.481Z" fill="#EFCC9A"/>
<path d="M549.034 311.857C547.423 312.307 544.86 312.764 541.343 313.227C537.972 313.689 534.6 313.932 531.227 313.954C527.854 313.976 524.845 313.702 522.202 313.133C519.705 312.709 517.573 311.843 515.804 310.535C514.036 309.226 512.704 307.402 511.808 305.061C510.913 302.72 510.453 299.643 510.428 295.83L509.666 179.672C511.278 179.368 513.842 178.985 517.359 178.522C520.875 177.912 524.246 177.596 527.473 177.575C530.846 177.553 533.781 177.827 536.279 178.398C538.921 178.82 541.127 179.686 542.896 180.994C544.664 182.303 545.996 184.127 546.892 186.468C547.787 188.809 548.247 191.886 548.272 195.699L549.034 311.857Z" fill="#EFCC9A"/>
<path d="M646.695 314.619C644.396 315.956 640.982 316.849 636.453 317.296C632.067 317.772 627.357 317.51 622.321 316.512C616.279 315.315 611.242 313.42 607.211 310.827C603.203 308.09 600.669 304.973 599.608 301.475C598.571 297.832 597.328 293.178 595.88 287.511C594.456 281.699 592.982 275.28 591.46 268.254C590.081 261.256 588.618 253.868 587.07 246.089C585.69 238.194 584.394 230.241 583.181 222.23C581.969 214.219 580.876 206.381 579.904 198.717C578.932 191.052 578.176 183.879 577.637 177.197C579.983 175.57 583.157 174.331 587.159 173.48C591.328 172.513 595.57 172.457 599.886 173.313C605.209 174.368 609.336 176.381 612.265 179.353C615.362 182.208 617.204 186.832 617.791 193.225C619.351 208.179 621.006 222.554 622.756 236.351C624.674 250.031 626.64 264.318 628.656 279.213L629.951 279.47C636.064 266.634 642.452 252.583 649.112 237.316C655.917 222.077 662.494 206.868 668.843 191.688C671.646 190.899 674.558 190.355 677.577 190.057C680.741 189.787 684.193 190.023 687.933 190.765C693.256 191.82 697.587 193.948 700.924 197.15C704.285 200.207 705.515 204.486 704.614 209.986C704.092 213.17 702.542 217.645 699.963 223.41C697.529 229.204 694.46 235.694 690.757 242.88C687.222 249.95 683.268 257.311 678.895 264.962C674.666 272.642 670.436 279.873 666.205 286.656C662.142 293.322 658.353 299.221 654.839 304.353C651.348 309.339 648.633 312.761 646.695 314.619Z" fill="#EFCC9A"/>
<path d="M396.396 280.436C397.864 280.693 399.666 280.948 401.801 281.201C403.935 281.32 405.935 281.374 407.802 281.362C412.335 281.332 416.464 280.638 420.189 279.28C424.046 277.922 427.299 275.834 429.948 273.016C432.729 270.198 434.839 266.584 436.277 262.174C437.847 257.631 438.612 252.226 438.57 245.959C438.492 233.959 435.633 224.978 429.994 219.015C424.354 212.918 416.867 209.901 407.534 209.962C405.667 209.974 403.734 210.053 401.735 210.2C399.869 210.345 397.937 210.558 395.939 210.838L396.396 280.436ZM407.787 309.562C405.52 309.577 402.92 309.527 399.986 309.413C397.051 309.299 393.983 309.053 390.781 308.674C387.711 308.294 384.575 307.781 381.37 307.135C378.3 306.622 375.428 305.841 372.755 304.792C365.403 302.04 361.705 297.197 361.659 290.264L361.047 196.866C361.029 194.066 361.748 191.928 363.205 190.452C364.794 188.842 366.919 187.561 369.58 186.61C375.301 184.706 381.359 183.466 387.756 182.891C394.151 182.182 399.882 181.811 404.949 181.778C415.349 181.71 424.757 182.915 433.173 185.393C441.723 187.87 449.015 191.756 455.05 197.05C461.217 202.21 465.994 208.778 469.38 216.756C472.765 224.734 474.494 234.19 474.566 245.123C474.636 255.789 473.097 265.133 469.949 273.154C466.801 281.041 462.245 287.738 456.281 293.244C450.449 298.616 443.409 302.662 435.16 305.383C426.911 308.103 417.787 309.497 407.787 309.562Z" fill="#F3D7AF"/>
<path d="M322.85 420.239C316.97 418.278 311.624 416.313 306.811 414.344C301.997 412.243 297.847 409.736 294.361 406.826C290.876 403.915 288.12 400.467 286.093 396.48C284.2 392.359 283.234 387.365 283.195 381.498C283.121 370.165 287.395 361.071 296.017 354.214C304.772 347.356 317.016 343.876 332.749 343.773C338.482 343.735 343.818 344.1 348.756 344.868C353.695 345.636 357.903 346.875 361.381 348.585C364.992 350.162 367.805 352.276 369.823 354.93C371.839 357.45 372.859 360.444 372.882 363.91C372.905 367.377 372.124 370.382 370.541 372.926C368.957 375.336 367.037 377.415 364.782 379.164C361.836 377.316 357.892 375.742 352.95 374.441C348.008 373.007 342.603 372.309 336.736 372.347C330.736 372.387 326.342 373.282 323.554 375.034C320.764 376.652 319.378 378.728 319.394 381.261C319.408 383.261 320.285 384.922 322.027 386.244C323.768 387.433 326.376 388.549 329.849 389.593L340.471 392.923C353.031 396.841 362.664 401.911 369.372 408.134C376.212 414.223 379.667 422.6 379.737 433.267C379.811 444.6 375.405 453.829 366.518 460.954C357.63 467.946 344.52 471.498 327.187 471.612C321.054 471.652 315.317 471.156 309.977 470.125C304.771 469.226 300.162 467.856 296.15 466.015C292.27 464.041 289.188 461.661 286.903 458.876C284.75 455.957 283.662 452.63 283.637 448.897C283.612 445.03 284.724 441.756 286.973 439.075C289.221 436.26 291.674 434.111 294.331 432.627C298.083 435.535 302.633 438.039 307.98 440.137C313.461 442.235 319.401 443.262 325.801 443.22C332.334 443.178 336.927 442.148 339.581 440.13C342.234 438.113 343.552 435.771 343.535 433.104C343.517 430.437 342.438 428.444 340.296 427.125C338.153 425.672 335.144 424.292 331.268 422.984L322.85 420.239Z" fill="#F3D7AF"/>
<path d="M400.368 388.904C400.3 378.505 401.84 369.294 404.987 361.274C408.268 353.252 412.691 346.556 418.256 341.186C423.953 335.682 430.593 331.505 438.174 328.655C445.889 325.805 454.213 324.35 463.146 324.292C472.079 324.233 480.355 325.579 487.973 328.329C495.725 331.078 502.485 335.167 508.254 340.596C514.022 345.892 518.532 352.529 521.785 360.508C525.17 368.486 526.897 377.675 526.966 388.074C527.034 398.474 525.495 407.751 522.348 415.905C519.2 423.926 514.778 430.689 509.081 436.193C503.516 441.563 496.876 445.673 489.161 448.524C481.446 451.374 473.056 452.829 463.989 452.889C454.923 452.948 446.514 451.603 438.762 448.854C431.01 445.971 424.316 441.815 418.68 436.385C413.044 430.956 408.6 424.251 405.348 416.272C402.095 408.294 400.436 399.171 400.368 388.904ZM436.368 388.668C436.447 400.802 438.973 409.852 443.946 415.819C448.918 421.787 455.538 424.744 463.804 424.689C472.204 424.634 478.851 421.591 483.745 415.558C488.639 409.526 491.046 400.444 490.966 388.31C490.888 376.311 488.362 367.327 483.39 361.36C478.55 355.391 471.931 352.435 463.531 352.49C455.264 352.544 448.618 355.587 443.59 361.621C438.696 367.519 436.288 376.535 436.368 388.668Z" fill="#F3D7AF"/>
<path d="M647.871 418.161C647.918 425.361 646.695 431.969 644.201 437.985C641.839 443.867 638.339 448.957 633.701 453.254C629.061 457.418 623.416 460.655 616.764 462.966C610.112 465.276 602.586 466.459 594.187 466.514C585.787 466.569 578.246 465.485 571.565 463.262C564.883 461.039 559.196 457.876 554.502 453.774C549.808 449.538 546.175 444.495 543.603 438.645C541.164 432.661 539.92 426.069 539.873 418.869L539.372 342.47C540.837 342.194 543.168 341.845 546.365 341.425C549.562 340.87 552.627 340.583 555.56 340.564C558.627 340.544 561.295 340.793 563.565 341.312C565.968 341.696 567.973 342.483 569.581 343.672C571.189 344.862 572.399 346.521 573.213 348.649C574.027 350.777 574.446 353.574 574.468 357.041L574.868 418.039C574.91 424.439 576.676 429.428 580.167 433.005C583.79 436.581 588.402 438.351 594.002 438.314C599.735 438.277 604.323 436.447 607.766 432.824C611.209 429.201 612.91 424.19 612.868 417.79L612.371 341.992C613.836 341.715 616.167 341.367 619.364 340.946C622.56 340.392 625.625 340.105 628.558 340.086C631.625 340.065 634.293 340.315 636.564 340.833C638.966 341.217 640.971 342.004 642.579 343.194C644.187 344.383 645.398 346.042 646.212 348.17C647.026 350.298 647.444 353.095 647.467 356.562L647.871 418.161Z" fill="#F3D7AF"/>
<path d="M727.227 425.954C732.706 427.112 737.143 426.755 740.537 424.883C744.088 422.909 746.416 419.312 747.519 414.094C748.567 409.137 747.801 405.023 745.222 401.752C742.801 398.379 738.655 396.071 732.785 394.83C730.697 394.389 728.922 394.082 727.46 393.909C726.155 393.633 724.758 393.474 723.268 393.432L716.857 423.762L727.227 425.954ZM703.774 486.615C702.257 486.703 699.891 486.612 696.678 486.341C693.595 486.098 690.553 485.66 687.552 485.026C684.552 484.391 681.933 483.565 679.695 482.547C677.56 481.687 675.834 480.504 674.517 478.999C673.2 477.494 672.37 475.616 672.029 473.363C671.687 471.11 671.875 468.288 672.592 464.896L692.075 372.733C692.654 369.994 693.812 368.058 695.551 366.926C697.447 365.692 699.796 364.894 702.598 364.532C707.364 363.904 712.621 363.857 718.368 364.391C724.274 364.821 730.096 365.643 735.836 366.857C753.838 370.662 766.787 377.42 774.683 387.129C782.579 396.839 785.134 408.282 782.349 421.457C780.998 427.849 778.727 433.434 775.537 438.21C772.505 442.884 768.567 446.685 763.723 449.614C759.038 452.439 753.409 454.247 746.836 455.038C740.422 455.727 733.236 455.23 725.278 453.547L711.385 450.611L703.774 486.615Z" fill="#F3D7AF"/>
<path d="M547.761 301.634C546.297 302.044 543.966 302.459 540.769 302.88C537.705 303.3 534.64 303.52 531.573 303.541C528.506 303.561 525.771 303.312 523.368 302.794C521.099 302.409 519.16 301.622 517.552 300.432C515.944 299.243 514.734 297.584 513.92 295.456C513.106 293.328 512.687 290.531 512.665 287.064L511.972 181.466C513.437 181.19 515.768 180.842 518.966 180.421C522.162 179.866 525.227 179.58 528.16 179.56C531.227 179.54 533.895 179.789 536.165 180.308C538.568 180.692 540.573 181.479 542.181 182.668C543.789 183.858 545 185.517 545.813 187.645C546.627 189.773 547.046 192.57 547.069 196.037L547.761 301.634Z" fill="#F3D7AF"/>
<path d="M647.164 303.807C645.074 305.101 641.96 306.034 637.824 306.606C633.818 307.197 629.51 307.135 624.899 306.418C619.365 305.558 614.745 304.03 611.038 301.835C607.352 299.508 605.01 296.782 604.011 293.658C603.033 290.403 601.858 286.24 600.488 281.169C599.137 275.967 597.737 270.217 596.287 263.919C594.969 257.642 593.57 251.015 592.091 244.039C590.764 236.951 589.513 229.807 588.338 222.608C587.163 215.409 586.1 208.362 585.148 201.467C584.195 194.572 583.445 188.114 582.897 182.091C585.028 180.534 587.919 179.296 591.57 178.379C595.373 177.351 599.251 177.145 603.203 177.759C608.078 178.517 611.867 180.185 614.569 182.764C617.424 185.232 619.146 189.345 619.735 195.104C621.286 208.569 622.918 221.506 624.632 233.917C626.498 246.216 628.414 259.063 630.38 272.457L631.566 272.641C637.049 260.81 642.771 247.868 648.733 233.817C654.827 219.787 660.713 205.792 666.392 191.832C668.947 191.014 671.604 190.415 674.362 190.035C677.252 189.674 680.409 189.76 683.835 190.293C688.71 191.05 692.686 192.815 695.763 195.588C698.861 198.228 700.021 202.052 699.243 207.058C698.792 209.957 697.412 214.06 695.103 219.368C692.925 224.697 690.174 230.679 686.848 237.313C683.675 243.837 680.122 250.638 676.188 257.718C672.385 264.818 668.579 271.513 664.767 277.802C661.108 283.98 657.694 289.454 654.524 294.224C651.374 298.862 648.921 302.056 647.164 303.807Z" fill="#F3D7AF"/>
</svg>
